<svg xmlns="http://www.w3.org/2000/svg" viewBox="150 100 200 300"><defs><style>.a{fill:rgba(255,255,255,0);}.b,.c{fill:#ffb11a;}.c,.e{fill-rule:evenodd;}.d,.e{fill:#ffc556;}</style></defs><rect class="a" /><g transform="translate(154.731 100)"><path class="b" d="M96.464,373.706q1.476,3.816,2.9,7.638a94.886,94.886,0,0,0,8.4,15.414q-7.2-20.4-15.348-40.458a96.073,96.073,0,0,0,4.044,17.4m-4.2-18.378q9.288,21.984,17.538,44.4,2.4,3.252,5.064,6.348Q104.2,376.178,91.64,347c.108,2.784.336,5.55.678,8.322" transform="translate(-91.538 -138.8)"/><path class="c" d="M91.554,341.98c9.366,20.85,17.82,41.592,25.4,61.86q2.124,2.292,4.386,4.44-13.518-36.894-29.79-72.69c-.072,2.124-.072,4.248,0,6.39" transform="translate(-91.482 -134.236)"/><path class="c" d="M91.61,331.442q17.4,36.9,32,75.036,1.98,1.764,4.026,3.4Q111.578,367.214,91.952,326q-.252,2.706-.342,5.4" transform="translate(-91.526 -130.4)"/><path class="c" d="M92.19,322.562q20.82,42.12,38.04,85.872,1.872,1.392,3.786,2.676-18.474-47.586-41.256-93.3c-.234,1.578-.414,3.168-.6,4.764" transform="translate(-91.746 -127.124)"/><path class="c" d="M93.192,314.764c16.8,32.43,31.326,64.626,43.752,95.052q1.8,1.116,3.6,2.154Q119.7,360.13,93.906,310.48c-.282,1.422-.522,2.856-.726,4.284" transform="translate(-92.154 -124.192)"/><path class="c" d="M94.41,307.726q27.072,50.3,49.29,102.99c1.146.6,2.292,1.17,3.456,1.722A1196.851,1196.851,0,0,0,95.262,303.79c-.312,1.308-.6,2.616-.84,3.936" transform="translate(-92.646 -121.516)"/><path class="c" d="M95.86,301.262q30.018,53.622,54.684,109.974,1.662.72,3.36,1.374a1247.586,1247.586,0,0,0-57.1-115.02q-.5,1.8-.942,3.654" transform="translate(-93.226 -119.036)"/><path class="c" d="M97.45,295.3q32.874,56.538,60,116.136,1.6.558,3.234,1.056A1303.874,1303.874,0,0,0,98.47,291.89c-.366,1.146-.7,2.286-1.02,3.426" transform="translate(-93.862 -116.756)"/><path class="c" d="M99.16,289.7a1378.921,1378.921,0,0,1,65.262,121.53c1.044.288,2.1.546,3.162.8a1371.1,1371.1,0,0,0-67.32-125.556c-.39,1.068-.756,2.136-1.1,3.216" transform="translate(-94.546 -114.588)"/><path class="c" d="M171.46,410.69q1.536.306,3.078.57A1448.055,1448.055,0,0,0,102.2,281.48l-.06-.09c-.4,1.008-.78,2.028-1.146,3.048q38.352,61.326,70.458,126.24" transform="translate(-95.278 -112.556)"/><path class="b" d="M178.56,409.81c1,.138,2,.264,3,.354a1537.909,1537.909,0,0,0-77.4-133.5l-.06-.084q-.63,1.434-1.2,2.886l.054.09q40.95,63.24,75.6,130.248Z" transform="translate(-96.042 -110.632)"/><path class="b" d="M185.72,408.594c.966.066,1.944.1,2.9.144-26.136-48.42-53.784-94.29-82.338-136.65l-.072-.108c-.432.912-.852,1.836-1.254,2.76l.048.084q43.506,64.932,80.706,133.8" transform="translate(-96.866 -108.792)"/><path class="b" d="M192.918,407.036c.942,0,1.884-.03,2.832-.06-27.894-49.314-57.222-96.1-87.342-139.332a.247.247,0,0,1,0-.054c-.45.87-.888,1.752-1.308,2.634l.072.108c33.9,48.75,62.754,96.1,85.8,136.7" transform="translate(-97.722 -107.036)"/><path class="b" d="M200.088,405.168c.918-.072,1.842-.144,2.766-.24Q159.834,332.2,110.532,263.49c-.444.816-.882,1.638-1.3,2.46V266q48.462,67.572,90.858,139.164" transform="translate(-98.574 -105.396)"/><path class="c" d="M209.962,402.476q-45.6-73.494-97.122-143.046c-.462.78-.912,1.572-1.35,2.364q50.742,68.568,95.784,141.1c.894-.126,1.8-.258,2.7-.414" transform="translate(-99.478 -103.772)"/><path class="c" d="M217.028,399.684q-48.15-73.98-101.82-144.144-.714,1.134-1.4,2.28,52.962,69.312,100.62,142.458c.87-.186,1.74-.378,2.6-.6" transform="translate(-100.406 -102.216)"/><path class="c" d="M224.076,396.526q-50.718-74.2-106.434-144.786-.738,1.086-1.452,2.208c41.526,52.488,77.4,102.474,105.342,143.3l2.544-.756" transform="translate(-101.358 -100.696)"/><path class="c" d="M228.556,393.918c.816-.282,1.626-.6,2.436-.888l-1.5-2.1Q176.986,317.9,120.154,248.13q-.756,1.05-1.494,2.136,57.126,70.146,109.9,143.664" transform="translate(-102.346 -99.252)"/><path class="c" d="M235.478,390.2c.792-.336,1.566-.69,2.358-1.038l-3.03-4.014Q180.572,313.436,122.714,244.58c-.516.684-1.026,1.38-1.524,2.076Q180.212,316.91,235.478,390.2" transform="translate(-103.358 -97.832)"/><path class="c" d="M244.464,384.972c-33.942-42.774-74.478-92.3-119.124-143.8-.528.666-1.05,1.338-1.56,2.016q60.756,70.2,118.428,142.98c.75-.384,1.506-.774,2.256-1.2" transform="translate(-104.394 -96.468)"/><path class="b" d="M250.976,370.958Q190.754,298.634,128.048,228.4c-.54.648-1.08,1.3-1.608,1.962q62.4,69.918,122.4,141.948,1.086-.654,2.142-1.332m5.28-3.6q-62.4-71.232-126.546-140.91c-.564.6-1.11,1.266-1.65,1.914C174.908,279.206,218,327.536,254.21,368.828c.684-.468,1.368-.954,2.046-1.452m5.016-3.972c-37.392-40.572-81.828-88.3-129.828-138.822-.57.6-1.14,1.236-1.692,1.854,47.9,50.4,92.25,98.046,129.6,138.564.654-.516,1.3-1.044,1.938-1.6m4.752-4.3q-66.222-68.364-132.786-136.38c-.6.6-1.2,1.2-1.74,1.8,48.8,49.86,94.314,96.642,132.72,136.278.6-.558,1.2-1.14,1.8-1.722m4.458-4.6c-39.384-38.64-85.884-84.438-135.438-133.548-.6.6-1.2,1.164-1.8,1.758,49.608,49.152,96.12,94.968,135.546,133.632.6-.6,1.14-1.2,1.71-1.836m4.14-4.9Q205.316,284.888,136.94,219.2c-.6.558-1.2,1.128-1.836,1.7,50.214,48.294,97.644,93,137.964,130.638.54-.648,1.068-1.3,1.584-1.95m3.816-5.16q-70.59-62.6-139.608-126.936l-1.884,1.662Q206.2,283.688,277.01,346.49l1.452-2.058m3.462-5.4q-71.586-60.384-141.072-123.18c-.654.516-1.3,1.068-1.938,1.614q69.774,63.072,141.7,123.72c.444-.714.888-1.428,1.314-2.154M285,333.41q-72.33-58.05-142.1-119.19c-.66.522-1.338,1.038-1.992,1.578Q211.046,277.28,283.814,335.66c.4-.75.8-1.506,1.2-2.262" transform="translate(-105.458 -85.688)"/><path class="c" d="M297.608,329.016c.354-.78.7-1.572,1.032-2.364l-3.516-2.682q-71-54.366-139.14-112.32c-.7.5-1.386,1.014-2.064,1.53q70.29,59.814,143.688,115.836" transform="translate(-116.45 -84.66)"/><path class="c" d="M301.46,322.128c.312-.81.6-1.62.882-2.448-.51-.366-1.02-.726-1.524-1.11q-72.234-52.6-141.234-109.47-1.068.738-2.124,1.494,69.264,57.15,141.924,110.046l2.076,1.518" transform="translate(-117.866 -83.64)"/><path class="c" d="M305.666,312.614c-40.578-28.11-90.24-64.2-142.422-105.984-.726.468-1.458.954-2.184,1.452q70.062,56.01,143.874,107.07c.258-.84.5-1.686.726-2.538" transform="translate(-119.306 -82.652)"/><path class="c" d="M308.642,305.492Q235.964,257.54,167.072,204.23c-.762.444-1.518.924-2.262,1.4Q234.452,259.586,308.06,308.1c.21-.876.4-1.746.6-2.628" transform="translate(-120.806 -81.692)"/><path class="c" d="M311.246,298.264Q239.2,252.952,171.032,201.88q-1.2.666-2.352,1.368c51.42,38.694,100.908,71.772,142.164,97.7.144-.894.282-1.8.4-2.7" transform="translate(-122.354 -80.752)"/><path class="c" d="M313.512,291.072q-71.106-42.66-138.3-91.392h-.054c-.822.426-1.638.87-2.448,1.32q68.2,49.494,140.574,92.85c.1-.93.174-1.86.24-2.79" transform="translate(-123.966 -79.872)"/><path class="c" d="M315.324,286.646l.048-2.85q-69.876-40.014-135.864-86.3l-.1-.072q-1.326.642-2.616,1.314h.054c42.96,30.312,89.454,59.826,138.48,87.894" transform="translate(-125.598 -78.968)"/><path class="b" d="M317.072,279.508c-.036-.978-.084-1.956-.15-2.934q-68.4-37.428-133.032-81.264c-.912.4-1.8.828-2.73,1.266l.108.072c42.1,28.734,87.684,56.544,135.792,82.86" transform="translate(-127.346 -78.124)"/><path class="c" d="M318.5,272.4c-.1-1.008-.21-2.022-.342-3.03Q251.6,234.574,188.7,193.33l-.09-.06q-1.44.6-2.862,1.2l.084.048A1517.633,1517.633,0,0,0,318.5,272.4" transform="translate(-129.182 -77.308)"/><path class="b" d="M319.56,265.334q-.252-1.56-.558-3.1a1439.677,1439.677,0,0,1-125.472-70.9c-1.02.372-2.028.756-3.03,1.164l.09.06a1436.179,1436.179,0,0,0,129,72.78" transform="translate(-131.082 -76.532)"/><path class="c" d="M319.54,255.156a1363.905,1363.905,0,0,1-120.8-65.676c-1.068.354-2.136.72-3.192,1.11a1357.821,1357.821,0,0,0,124.8,67.74q-.378-1.6-.8-3.186" transform="translate(-133.102 -75.792)"/><path class="c" d="M319.764,248.122A1297.66,1297.66,0,0,1,204.312,187.75c-1.14.324-2.286.666-3.4,1.038A1290.9,1290.9,0,0,0,320.79,251.38c-.336-1.092-.684-2.178-1.056-3.258" transform="translate(-135.246 -75.1)"/><path class="c" d="M319.592,241.168Q263.606,216.382,210.26,186.16c-1.2.294-2.4.6-3.6.948a1235.411,1235.411,0,0,0,114.294,57.456q-.655-1.71-1.368-3.384" transform="translate(-137.546 -74.464)"/><path class="c" d="M319.048,234.306Q266.7,211.968,216.67,184.71q-1.962.384-3.9.852a1183.746,1183.746,0,0,0,108,52.2c-.546-1.2-1.122-2.328-1.716-3.474" transform="translate(-139.99 -73.884)"/><path class="c" d="M318.176,227.5q-48.21-19.854-94.458-44.028c-1.434.2-2.856.456-4.278.726q49.26,25.92,100.872,46.944-1.026-1.842-2.136-3.642" transform="translate(-142.658 -73.388)"/><path class="c" d="M316.76,220.774Q273.3,203.452,231.428,182.5q-2.37.228-4.728.57,45.378,22.89,92.724,41.514-1.284-1.932-2.664-3.81" transform="translate(-145.562 -73)"/><path class="c" d="M314.824,214.084Q276.94,199.4,240.25,181.87c-1.8.072-3.6.186-5.4.354q40.89,19.722,83.346,35.892-1.632-2.07-3.372-4.044" transform="translate(-148.822 -72.748)"/><path class="c" d="M314.63,209.724c-.792-.792-1.6-1.566-2.4-2.334q-31.152-11.79-61.494-25.566-3.168-.108-6.336,0,35.532,16.35,72.24,30-.978-1.05-1.992-2.076" transform="translate(-152.642 -72.708)"/><path class="b" d="M308.092,200.208q-22.254-8.3-44.106-17.664-4.116-.522-8.256-.684,28.962,12.684,58.68,23.484-3.042-2.688-6.306-5.106M289.846,189.7q-3.8-1.446-7.6-2.928a93.99,93.99,0,0,0-17.3-4.056q19.932,8.172,40.2,15.456a93.876,93.876,0,0,0-15.318-8.472" transform="translate(-157.174 -72.744)"/><path class="d" d="M387.262,86.914q-1.464-3.816-2.9-7.638a94.8,94.8,0,0,0-8.4-15.414q7.236,20.4,15.354,40.458a96.146,96.146,0,0,0-4.026-17.4m4.152,18.378q-9.288-21.99-17.532-44.4-2.4-3.282-5.076-6.348,10.716,29.88,23.292,59.052-.162-4.164-.678-8.31" transform="translate(-202.414 -21.82)"/><path class="e" d="M387.772,109.552q-13.686-30.516-25.41-61.86-2.124-2.3-4.392-4.452,13.524,36.888,29.8,72.7c.066-2.13.066-4.254,0-6.384" transform="translate(-198.07 -17.296)"/><path class="e" d="M383.6,112.63q-17.4-36.9-32.022-75.036-1.95-1.746-4.014-3.384,16.068,42.66,35.688,83.838c.162-1.8.27-3.6.342-5.4" transform="translate(-193.906 -13.684)"/><path class="e" d="M379.116,115.222Q358.3,73.114,341.07,29.356c-1.242-.924-2.5-1.8-3.78-2.676q18.486,47.592,41.268,93.306c.228-1.59.414-3.174.57-4.8" transform="translate(-189.798 -10.672)"/><path class="e" d="M374.432,117.564q-24-46.512-43.752-95.052c-1.2-.738-2.4-1.458-3.6-2.142q20.856,51.84,46.656,101.49.414-2.142.726-4.3" transform="translate(-185.714 -8.148)"/><path class="e" d="M369.65,119.842q-27.072-50.31-49.284-102.99-1.71-.9-3.456-1.722A1194.13,1194.13,0,0,0,368.8,123.8c.312-1.3.6-2.6.852-3.924" transform="translate(-181.646 -6.052)"/><path class="e" d="M364.678,122.042Q334.678,68.42,310,12.05c-1.11-.486-2.232-.942-3.36-1.38a1247.458,1247.458,0,0,0,57.1,115.014c.33-1.2.654-2.4.942-3.642" transform="translate(-177.538 -4.268)"/><path class="e" d="M359.624,124.282q-32.868-56.526-60-116.124-1.6-.564-3.234-1.068A1307.124,1307.124,0,0,0,358.6,127.69c.36-1.146.708-2.286,1.026-3.426" transform="translate(-173.438 -2.836)"/><path class="e" d="M354.45,126.6A1378.192,1378.192,0,0,1,289.194,5.044c-1.056-.288-2.112-.552-3.174-.8A1371.99,1371.99,0,0,0,353.34,129.8c.4-1.08.756-2.148,1.11-3.216" transform="translate(-169.29 -1.696)"/><path class="e" d="M278.732,2.718q-1.53-.3-3.072-.558a1448,1448,0,0,0,72.33,129.768l.054.1c.414-1.014.786-2.034,1.152-3.06Q310.85,67.644,278.732,2.742" transform="translate(-165.146 -0.864)"/><path class="e" d="M268.23,1.114c-1-.138-2-.252-3-.354a1537.891,1537.891,0,0,0,77.4,133.5l.054.1c.414-.966.828-1.92,1.2-2.892l-.054-.084Q302.892,68.1,268.23,1.114" transform="translate(-160.974 -0.304)"/><path class="e" d="M257.726.222c-.972-.06-1.944-.1-2.916-.132,26.154,48.42,53.784,94.266,82.35,136.644l.066.1c.444-.912.858-1.8,1.266-2.748l-.054-.1Q294.932,69.066,257.726.222" transform="translate(-156.806 -0.036)"/><path class="d" d="M247.214,0c-.948,0-1.9,0-2.844.054,27.906,49.32,57.216,96.1,87.342,139.338l.042.042c.444-.87.882-1.752,1.3-2.634l-.066-.1C299.078,87.954,270.23,40.6,247.2,0Z" transform="translate(-152.63)"/><path class="d" d="M236.732.36c-.924.066-1.848.15-2.772.24q43.02,72.744,92.322,141.45.666-1.236,1.308-2.472l-.042-.042Q279.146,71.952,236.744.36" transform="translate(-148.466 -0.144)"/><path class="e" d="M223.616,1.872q45.6,73.494,97.116,143.046c.468-.774.924-1.566,1.356-2.364Q271.346,73.992,226.3,1.47c-.9.12-1.8.258-2.694.4" transform="translate(-144.326 -0.588)"/><path class="e" d="M213.37,3.82q48.15,73.992,101.82,144.156c.492-.756.96-1.518,1.416-2.28Q263.632,76.39,215.986,3.25c-.876.18-1.746.366-2.616.6" transform="translate(-140.23 -1.3)"/><path class="e" d="M203.27,6.446c28.146,41.184,64.41,91.722,106.41,144.792q.738-1.1,1.452-2.214Q256.034,79.2,205.8,5.72c-.846.234-1.686.474-2.526.726" transform="translate(-136.19 -2.288)"/><path class="e" d="M195.772,8.87c-.816.288-1.632.6-2.442.894l1.506,2.094c29.094,40.434,66.438,90.246,109.356,142.8l1.482-2.142q-56.52-69.4-108.792-142.11l-1.11-1.536" transform="translate(-132.214 -3.548)"/><path class="e" d="M185.98,12.71c-.786.33-1.566.678-2.34,1.038l3,4.014q54.228,71.712,112.086,140.574c.516-.7,1.032-1.38,1.524-2.076q-59-70.266-114.27-143.55" transform="translate(-128.338 -5.084)"/><path class="e" d="M174.32,18.352c33.93,42.786,74.478,92.316,119.112,143.8.54-.666,1.056-1.338,1.566-2.016Q234.248,89.95,176.582,17.17c-.756.384-1.506.774-2.256,1.2" transform="translate(-124.61 -6.868)"/><path class="d" d="M144.562,23.646Q204.82,95.982,267.526,166.218c.54-.648,1.08-1.3,1.608-1.962q-62.4-69.918-122.4-141.936c-.726.426-1.434.87-2.148,1.326m-5.268,3.6c36.282,41.418,79.542,89.9,126.528,140.91l1.638-1.9C220.66,115.416,177.55,67.092,141.346,25.794c-.69.474-1.374.96-2.052,1.452m-5.034,3.972c37.386,40.584,81.822,88.3,129.816,138.816.6-.6,1.146-1.2,1.7-1.848q-65.316-68.8-129.6-138.564c-.654.516-1.3,1.056-1.926,1.6m-4.764,4.3q66.264,68.346,132.84,136.362c.6-.6,1.17-1.2,1.74-1.8Q197.542,102.108,131.35,33.792c-.6.564-1.23,1.14-1.83,1.722m-4.458,4.614c39.384,38.64,85.89,84.426,135.438,133.548.6-.6,1.2-1.164,1.8-1.764-49.584-49.14-96.132-94.956-135.528-133.626l-1.71,1.842m-4.152,4.9c40.272,37.572,87.6,82.2,137.718,130.386.6-.558,1.236-1.122,1.842-1.7-50.214-48.288-97.638-93-137.97-130.638-.54.642-1.068,1.29-1.59,1.95m-3.8,5.166q70.554,62.586,139.6,126.918l1.884-1.662Q189.364,110.928,118.558,48.12c-.492.678-.978,1.368-1.452,2.064m-3.456,5.4q71.61,60.384,141.072,123.18l1.944-1.614Q186.88,114.072,114.97,53.418c-.45.726-.894,1.44-1.32,2.166" transform="translate(-100.342 -8.928)"/><path class="e" d="M108.518,85.618q72.336,58.044,142.092,119.166c.678-.516,1.35-1.032,2-1.572Q182.48,141.724,109.7,83.35c-.4.75-.8,1.506-1.2,2.268" transform="translate(-98.282 -33.34)"/><path class="d" d="M103.64,92.74c-.36.78-.7,1.572-1.038,2.364l3.5,2.676c39.252,30.078,87.738,68.514,139.158,112.32.69-.5,1.38-1.02,2.064-1.536q-70.308-59.8-143.7-115.8m-2.4,5.856c-.306.81-.6,1.632-.888,2.448l1.536,1.11q72.252,52.6,141.246,109.47c.708-.486,1.422-.984,2.13-1.494Q175.934,152.992,103.286,100.1L101.2,98.578" transform="translate(-95.018 -37.096)"/><path class="e" d="M97.16,115.026c40.578,28.122,90.246,64.2,142.422,106l2.178-1.452Q171.7,163.566,97.9,112.5c-.258.84-.5,1.68-.726,2.526" transform="translate(-93.746 -45)"/><path class="e" d="M94.676,125.248Q167.342,173.17,236.24,226.486c.768-.456,1.524-.93,2.28-1.41Q168.86,171.13,95.24,122.62c-.21.87-.4,1.746-.6,2.628" transform="translate(-92.738 -49.048)"/><path class="e" d="M92.932,135.676q72.036,45.324,140.214,96.4c.786-.444,1.578-.9,2.352-1.368Q166.48,178.918,93.334,133c-.15.894-.288,1.8-.414,2.694" transform="translate(-92.05 -53.2)"/><path class="e" d="M91.85,146.148q71.112,42.66,138.306,91.392l.048.042c.822-.438,1.632-.87,2.442-1.332q-68.19-49.53-140.556-92.88c-.1.936-.18,1.86-.24,2.784" transform="translate(-91.622 -57.348)"/><g transform="translate(0 92.31)"><path class="e" d="M91.524,153.85c0,.948-.048,1.9-.054,2.85q69.876,40.014,135.858,86.3l.1.078c.882-.42,1.752-.864,2.616-1.32l-.042-.03c-42.966-30.312-89.472-59.8-138.48-87.882" transform="translate(-91.47 -153.85)"/></g><path class="d" d="M91.56,164.34c0,.99.078,1.962.144,2.94q68.4,37.41,132.942,81.222l.084.048c.918-.414,1.8-.828,2.736-1.272l-.1-.066C185.25,218.478,139.68,190.662,91.56,164.34Z" transform="translate(-91.506 -65.736)"/><path class="d" d="M92.23,174.84c.1,1.008.216,2.01.354,3q66.558,34.8,129.456,76.056l.09.048c.954-.378,1.914-.786,2.868-1.2l-.084-.06A1522.184,1522.184,0,0,0,92.242,174.84" transform="translate(-91.774 -69.936)"/><path class="e" d="M93.586,185.33c.18,1.038.366,2.064.6,3.09q64.434,32.292,125.448,70.9c1-.36,2.022-.744,3-1.164l-.084-.048a1433.288,1433.288,0,0,0-129-72.78" transform="translate(-92.302 -74.132)"/><path class="d" d="M96.452,198.952a1360.488,1360.488,0,0,1,120.78,65.664c1.068-.354,2.142-.726,3.2-1.122A1357.726,1357.726,0,0,0,95.63,195.76c.258,1.068.516,2.124.81,3.18" transform="translate(-93.134 -78.304)"/><path class="e" d="M99.582,209.45a1298.306,1298.306,0,0,1,115.41,60.372c1.14-.336,2.28-.678,3.414-1.038A1292.47,1292.47,0,0,0,98.52,206.18c.336,1.092.684,2.178,1.062,3.258" transform="translate(-94.29 -82.472)"/><path class="e" d="M103.446,219.884q55.992,24.8,109.32,55.02c1.2-.294,2.4-.6,3.63-.954A1233.007,1233.007,0,0,0,102.09,216.5c.42,1.146.876,2.262,1.356,3.384" transform="translate(-95.718 -86.6)"/><path class="e" d="M108.194,230.318Q160.55,252.65,210.608,279.9c1.308-.246,2.616-.54,3.912-.852a1185.357,1185.357,0,0,0-108-52.2c.552,1.2,1.122,2.334,1.71,3.486" transform="translate(-97.49 -90.74)"/><path class="e" d="M113.852,240.722c30.246,12.51,62.232,27.114,94.458,44.022q2.142-.312,4.272-.726Q163.328,258.092,111.71,237.08c.69,1.2,1.392,2.436,2.142,3.6" transform="translate(-99.566 -94.832)"/><path class="e" d="M120.652,251.17q43.464,17.316,85.338,38.274c1.578-.144,3.15-.342,4.728-.57Q165.34,265.984,118,247.36c.852,1.29,1.746,2.556,2.658,3.81" transform="translate(-102.082 -98.944)"/><path class="e" d="M128.856,261.744c24.252,9.42,49.344,20.118,74.58,32.2q2.682-.1,5.4-.342-40.878-19.728-83.316-35.9,1.608,2.052,3.36,4.044" transform="translate(-105.09 -103.08)"/><path class="e" d="M136.446,270.224c.786.8,1.6,1.578,2.4,2.346,20.124,7.632,40.77,16.128,61.482,25.56q3.174.108,6.348,0-35.544-16.362-72.246-30c.654.7,1.314,1.392,2,2.076" transform="translate(-108.654 -107.252)"/><path class="d" d="M152.008,284.16q22.26,8.3,44.112,17.658c2.742.342,5.5.57,8.262.672q-28.968-12.636-58.692-23.4c2.052,1.8,4.146,3.5,6.318,5.094m18.252,10.542,7.6,2.91a93.924,93.924,0,0,0,17.292,4.056q-19.938-8.166-40.2-15.444a93.665,93.665,0,0,0,15.318,8.466" transform="translate(-113.158 -111.636)"/></g></svg>